<?xml version="1.0" encoding="UTF-8"?>
<svg id="Layer_1" data-name="Layer 1" xmlns="http://www.w3.org/2000/svg" viewBox="0 0 82.61 13.96">
  <defs>
    <style>
      .cls-1 {
        fill: #fff;
      }
    </style>
  </defs>
  <path class="cls-1" d="M6.38,13.58v-6.4l-.87,4.88h-2.21l-.89-4.88v6.4H0V.34h2.74l1.67,5.66L6.07.34h2.71v13.25h-2.4Z"/>
  <path class="cls-1" d="M9.53,13.58V.34h2.4v13.25h-2.4Z"/>
  <path class="cls-1" d="M19.07,3.54v6.98s-.02,3.07-3.18,3.07h-3.2V.43h3.14s3.24-.21,3.24,3.1ZM16.65,10.48V3.33s0-.55-.78-.55h-.78v8.51h.78s.78-.15.78-.81Z"/>
  <path class="cls-1" d="M25.01,13.58l-2.86-7.04v7.04h-2.42V.32h1.99l3.27,7.27V.32h2.4v13.26h-2.38Z"/>
  <path class="cls-1" d="M28.15,13.58V.34h2.4v13.25h-2.4Z"/>
  <path class="cls-1" d="M37.38,10.71s-.08,3.22-3.12,3.25c-2.99.04-3.05-3.24-3.05-3.24V3.27s.19-3.27,3.07-3.27,3.08,2.76,3.08,3.27v1.55h-2.35v-1.53s0-.79-.72-.79-.74.79-.74.79v7.4s.02.81.74.81.72-.81.72-.81v-1.84h-.85v-2.46l3.22-.02v4.33Z"/>
  <path class="cls-1" d="M42.13,13.58v-5.64h-1.8v5.64h-2.38V.34h2.38v5.22h1.8V.34h2.36v13.25h-2.36Z"/>
  <path class="cls-1" d="M47.25,13.58V2.72h-2.19V.34h6.77v2.38h-2.19v10.86h-2.38Z"/>
  <path class="cls-1" d="M56.18,13.58V.34h3.1c.78,0,1.46.21,2.06.62.53.36.89.91,1.12,1.63.13.4.19.87.19,1.42,0,.89-.23,1.59-.68,2.14-.19.23-.42.4-.68.51.44.17.79.51,1.1,1,.19.34.34.78.44,1.31.04.28.08.59.08.93,0,.83-.17,1.55-.47,2.14-.23.45-.57.81-1,1.08-.49.32-.96.47-1.46.47h-3.78ZM58.53,5.43h.66c.49,0,.81-.36.98-.87.06-.19.09-.42.09-.68,0-.47-.11-.68-.32-.93-.19-.21-.45-.32-.76-.32h-.66v2.8ZM58.55,11.11h.62c.51,0,.87-.26,1.06-.81.08-.19.09-.27.09-.51,0-.57-.09-.98-.3-1.25-.19-.25-.47-.49-.85-.49h-.62v3.07Z"/>
  <path class="cls-1" d="M63.46,13.58V.34h2.4v10.84h3.5v2.4h-5.9Z"/>
  <path class="cls-1" d="M72.66,13.96c-.96,0-1.8-.42-2.38-1.19-.28-.38-.51-.87-.66-1.44-.15-.61-.25-1.27-.25-2V.34h2.21v8.84c0,.78.11,1.32.36,1.65.19.25.42.38.72.38.38,0,.66-.17.85-.49.19-.34.26-.85.26-1.53V.34h2.21v8.99c0,1.4-.3,2.55-.85,3.37-.28.42-.64.72-1.04.95-.42.23-.91.32-1.44.32Z"/>
  <path class="cls-1" d="M76.55,13.58V.34h5.92v2.46h-3.5v2.71h2.71v2.44h-2.71v3.18h3.63v2.46h-6.05Z"/>
</svg>